# xmcd
#
# Track frame offsets: 
#        150
#        18885
#        38037
#        56545
#        72117
#        88580
#        116580
#        133182
#        154340
#        172210
#        190607
#        208340
#        227392
#
# Disc length: 3249 seconds
#
# Revision: 0
# Processed by: cddbd v1.5.1PL0 Copyright (c) Steve Scherf et al.
# Submitted via: ExactAudioCopy v0.95a5
#
DISCID=ae0caf0d
DTITLE=Grady Champion - Payin' For My Sins
DYEAR=1999
DGENRE=Blues
TTITLE0=I'm Smilin' Again
TTITLE1=You Got Some Explaining To Do
TTITLE2=Good As New
TTITLE3=She's Some Kind Of Wonderful
TTITLE4=My Rooster Is King
TTITLE5=Goin' Down Slow
TTITLE6=Payin' For My Sins
TTITLE7=Troubled Mind
TTITLE8=Let Me Be
TTITLE9=Roberta
TTITLE10=Don't Start Me To Talkin'
TTITLE11=Ain't No Love In The Heart Of The City
TTITLE12=Dreamin'
EXTD=
EXTT0=
EXTT1=
EXTT2=
EXTT3=
EXTT4=
EXTT5=
EXTT6=
EXTT7=
EXTT8=
EXTT9=
EXTT10=
EXTT11=
EXTT12=
PLAYORDER=
